<svg xmlns="http://www.w3.org/2000/svg" xmlns:xlink="http://www.w3.org/1999/xlink" version="1.1" id="Layer_1" x="0px" y="0px" width="100px" height="100px" viewBox="0 0 100 100" enable-background="new 0 0 100 100" xml:space="preserve">
<g>
	<polygon points="67.189,50.2 46.224,70.132 24.349,70.132 38.1,57.105 0.65,57.105 0.65,50.2 0.65,43.295 38.1,43.295    24.349,30.27 46.224,30.271  "/>
	<path d="M46.275,70.26H24.027l13.75-13.026H0.521V43.167h37.256l-13.75-13.025l22.248,0.001l0.037,0.035L67.376,50.2l-0.098,0.093   L46.275,70.26z M24.67,70.003h21.502L67.004,50.2L46.172,30.399l-21.501-0.001l13.751,13.025H0.778v13.553h37.643L24.67,70.003z"/>
</g>
<g>
	<polygon points="99.5,83.062 53.313,83.062 53.313,74.085 57.417,74.085 57.417,78.958 95.396,78.958 95.396,21.444 57.417,21.444    57.417,26.317 53.313,26.317 53.313,17.34 99.5,17.34  "/>
</g>
</svg>